<!-- icon666.com - MILLIONS OF FREE VECTOR ICONS --><svg id="Capa_1" enable-background="new 0 0 512.001 512.001" viewBox="0 0 512.001 512.001" xmlns="http://www.w3.org/2000/svg"><g clip-rule="evenodd" fill-rule="evenodd"><path d="m343.649 127.447c-24.959-17.053-55.138-27.029-87.649-27.029-85.926 0-155.583 69.657-155.583 155.583 0 29.256 8.081 56.621 22.124 79.998h37.459c13.75 0 25 11.25 25 25 0 10.825-6.972 20.1-16.649 23.555 24.959 17.053 55.138 27.029 87.649 27.029 85.926 0 155.583-69.657 155.583-155.583 0-29.256-8.081-56.622-22.124-79.998h-37.459c-13.75 0-25-11.25-25-25 0-10.825 6.973-20.1 16.649-23.555z" fill="#ffda8f"></path><path d="m100.418 256c0-85.926 69.657-155.583 155.583-155.583 32.511 0 62.69 9.977 87.648 27.027 2.615-.934 5.427-1.443 8.352-1.443h5.001c13.75 0 25-11.25 25-25 0-1.448.125-2.868.365-4.25-9.97-1.587-19.663-4.986-28.575-10.131-19.148-11.054-33.12-29.263-38.843-50.62-15.634 15.635-36.839 24.418-58.949 24.418s-43.315-8.783-58.949-24.417c-5.723 21.357-19.695 39.566-38.843 50.621s-41.903 14.051-63.26 8.328c5.723 21.357 2.727 44.112-8.328 63.26s-29.264 33.12-50.62 38.843c15.635 15.633 24.418 36.837 24.418 58.947s-8.783 43.315-24.417 58.949c15.79 4.231 29.858 12.972 40.587 24.979 3.882-2.485 8.487-3.929 13.413-3.929h32.541c-14.043-23.377-22.124-50.743-22.124-79.999z" fill="#ffc144"></path><path d="m343.649 127.445c-9.676 3.457-16.649 12.732-16.649 23.557 0 13.751 11.25 25 25 25h37.459 32.541c4.926 0 9.531-1.444 13.413-3.93 6.954-4.452 11.587-12.247 11.587-21.071 0-13.75 11.25-25 25-25h5.001c13.75 0 25-11.25 25-25s-11.25-25-25-25h-70c-12.302 0-22.603 9.006-24.634 20.75-.241 1.382-.365 2.802-.365 4.25 0 13.75-11.25 25-25 25h-5.001c-2.926.001-5.738.51-8.352 1.444z" fill="#fff3db"></path><path d="m389.46 176.002c14.043 23.377 22.124 50.742 22.124 79.998 0 85.926-69.657 155.583-155.583 155.583-32.51 0-62.69-9.977-87.648-27.027-2.615.934-5.427 1.443-8.352 1.443h-5.001c-13.75 0-25 11.25-25 25 0 1.448-.125 2.868-.366 4.25 9.97 1.587 19.663 4.986 28.575 10.131 19.148 11.055 33.12 29.264 38.843 50.621 15.634-15.634 36.839-24.417 58.949-24.417s43.315 8.783 58.949 24.417c5.723-21.357 19.694-39.566 38.843-50.621 19.148-11.055 41.903-14.051 63.26-8.328-5.723-21.357-2.727-44.112 8.328-63.26s29.264-33.12 50.621-38.843c-15.634-15.634-24.417-36.839-24.417-58.949s8.783-43.315 24.417-58.949c-15.79-4.231-29.858-12.972-40.587-24.979-3.882 2.485-8.487 3.929-13.413 3.929h-32.542z" fill="#ffc144"></path><path d="m185.001 360.999c0-13.751-11.25-25-25-25h-37.459-32.541c-4.926 0-9.531 1.444-13.413 3.929-6.954 4.452-11.587 12.247-11.587 21.07 0 13.75-11.25 25-25 25l-5.001.001c-13.75 0-25 11.25-25 25s11.25 25 25 25h70c12.303 0 22.603-9.005 24.634-20.75.241-1.382.366-2.802.366-4.25 0-13.75 11.25-25 25-25h5.001c2.925 0 5.737-.509 8.352-1.443 9.675-3.457 16.648-12.732 16.648-23.557z" fill="#fff3db"></path></g><path d="m472 136.002h5.001c19.299 0 35-15.701 35-35s-15.701-35-35-35h-70c-13.573 0-25.358 7.772-31.161 19.095-5.947-1.649-11.659-4.024-17.048-7.136-16.972-9.798-29.111-25.62-34.184-44.549-.925-3.451-3.62-6.146-7.071-7.071-3.453-.926-7.133.062-9.659 2.588-13.857 13.858-32.28 21.489-51.878 21.489s-38.021-7.631-51.877-21.488c-2.526-2.526-6.209-3.514-9.659-2.588-3.451.924-6.146 3.62-7.071 7.071-1.361 5.078-3.276 10.023-5.692 14.698-2.536 4.906-.615 10.939 4.292 13.476 4.908 2.537 10.94.614 13.475-4.292.74-1.432 1.443-2.883 2.108-4.353 15.757 11.351 34.621 17.476 54.424 17.476 19.796 0 38.651-6.119 54.406-17.462 7.973 17.701 21.242 32.428 38.386 42.326 7.174 4.142 14.795 7.269 22.74 9.373-1.638 6.508-7.522 11.347-14.531 11.347h-5.001c-2.25 0-4.448.222-6.581.629-26.681-17.16-57.493-26.214-89.419-26.214-91.303 0-165.583 74.28-165.583 165.583 0 24.294 5.326 48.185 15.503 69.998h-15.92c-3.93 0-7.707.661-11.236 1.861-7.599-7.238-16.302-13.136-25.818-17.44 11.35-15.758 17.472-34.617 17.472-54.418 0-19.796-6.119-38.651-17.462-54.406 17.701-7.972 32.428-21.242 42.326-38.386 9.902-17.15 14.029-36.549 12.078-55.872 1.602.158 3.207.275 4.813.35 5.524.243 10.198-4.007 10.456-9.523.257-5.517-4.006-10.198-9.523-10.456-5.255-.245-10.493-1.059-15.568-2.418-3.45-.926-7.133.062-9.659 2.588s-3.513 6.208-2.588 9.66c5.072 18.929 2.469 38.7-7.33 55.671-9.798 16.971-25.619 29.111-44.548 34.184-3.451.925-6.146 3.62-7.071 7.071s.062 7.133 2.588 9.66c13.857 13.856 21.488 32.28 21.488 51.877s-7.631 38.021-21.489 51.877c-2.526 2.526-3.513 6.208-2.588 9.66.924 3.451 3.62 6.146 7.071 7.071 10.677 2.861 20.468 8.054 28.77 15.183-4.5 5.889-7.181 13.239-7.181 21.207 0 8.271-6.729 15-15 15h-5c-19.299 0-35 15.701-35 35s15.701 35 35 35h70c13.573 0 25.358-7.772 31.161-19.095 5.947 1.649 11.659 4.025 17.048 7.136 16.971 9.798 29.111 25.619 34.184 44.549.924 3.451 3.62 6.146 7.071 7.071 3.45.926 7.133-.062 9.659-2.588 13.856-13.857 32.28-21.488 51.877-21.488s38.021 7.631 51.877 21.488c1.9 1.9 4.454 2.93 7.072 2.93.862 0 1.732-.112 2.587-.341 3.451-.924 6.146-3.62 7.071-7.071 5.072-18.93 17.212-34.751 34.184-44.549 16.971-9.799 36.741-12.402 55.672-7.329 3.452.927 7.133-.063 9.659-2.588 2.526-2.526 3.513-6.208 2.588-9.66-5.072-18.929-2.469-38.7 7.329-55.672 9.798-16.971 25.619-29.111 44.548-34.183 3.451-.925 6.146-3.62 7.071-7.071s-.062-7.133-2.588-9.659c-13.857-13.857-21.488-32.281-21.488-51.878s7.631-38.021 21.488-51.877c2.526-2.526 3.513-6.208 2.588-9.66-.925-3.451-3.62-6.146-7.071-7.071-10.677-2.861-20.467-8.055-28.769-15.184 4.5-5.889 7.182-13.239 7.182-21.207-.001-8.271 6.728-15 14.999-15zm-114.998-.001c19.299 0 34.999-15.701 34.999-35 0-8.271 6.729-15 15-15h70c8.271 0 15 6.729 15 15s-6.729 15-15 15h-5.001c-19.299 0-35 15.701-35 35 0 5.152-2.613 9.705-6.581 12.406-.074.043-.145.093-.218.138-2.359 1.548-5.175 2.456-8.201 2.456h-70c-8.271 0-15-6.729-15-15s6.729-15 15.001-15zm-252.002 289.998h-70c-8.271 0-15-6.729-15-15s6.729-15 15-15h5c19.299 0 35-15.701 35-35 0-5.165 2.625-9.729 6.61-12.428.098-.057.195-.118.292-.179 2.339-1.508 5.115-2.393 8.098-2.393h32.527c.008 0 .015.001.023.001.007 0 .015-.001.022-.001h37.428c8.271 0 15 6.729 15 15.001 0 8.271-6.729 15-15 15h-5c-19.299 0-35 15.701-35 35 0 8.27-6.729 14.999-15 14.999zm354.045-115.593c-17.701 7.972-32.428 21.242-42.325 38.385-9.897 17.144-14.026 36.533-12.08 55.848-19.316-1.946-38.704 2.182-55.848 12.08-17.144 9.897-30.413 24.625-38.386 42.326-15.755-11.343-34.609-17.462-54.406-17.462-19.796 0-38.651 6.119-54.406 17.462-7.973-17.701-21.242-32.429-38.386-42.326-7.174-4.142-14.795-7.269-22.741-9.373 1.637-6.508 7.522-11.348 14.532-11.348h5.001c2.25 0 4.449-.222 6.582-.629 26.681 17.161 57.492 26.214 89.418 26.214 27.284 0 54.337-6.786 78.238-19.623 4.865-2.613 6.69-8.676 4.077-13.542-2.613-4.865-8.674-6.69-13.542-4.078-21 11.28-44.781 17.242-68.773 17.242-24.531 0-48.303-6.093-69.56-17.69 5.326-6.143 8.56-14.146 8.56-22.895 0-19.299-15.701-35-35-35h-31.663c-11.734-21.367-17.92-45.445-17.92-69.998 0-80.275 65.308-145.583 145.583-145.583 24.532 0 48.303 6.093 69.56 17.69-5.326 6.143-8.561 14.146-8.561 22.895 0 19.299 15.701 35 35 35h31.664c11.734 21.368 17.919 45.446 17.919 69.998 0 23.992-5.963 47.775-17.245 68.78-2.613 4.866-.788 10.928 4.078 13.542 1.506.809 3.125 1.192 4.723 1.192 3.563 0 7.014-1.911 8.818-5.27 12.84-23.904 19.626-50.96 19.626-78.244 0-24.293-5.326-48.185-15.502-69.998h15.92c3.93 0 7.706-.661 11.236-1.861 7.599 7.238 16.303 13.136 25.819 17.44-11.351 15.757-17.472 34.617-17.472 54.418 0 19.798 6.119 38.653 17.462 54.408z"></path><path d="m158.213 96.627c1.788 0 3.598-.479 5.231-1.485l.006-.004c4.704-2.895 6.167-9.052 3.272-13.755-2.894-4.704-9.057-6.168-13.76-3.274-4.704 2.895-6.17 9.054-3.276 13.757 1.89 3.07 5.169 4.761 8.527 4.761z"></path><path d="m358.614 359.287-.005.005c-3.715 4.086-3.411 10.408.675 14.123 1.916 1.741 4.322 2.6 6.723 2.6 2.721 0 5.433-1.104 7.406-3.275 3.715-4.086 3.414-10.411-.673-14.126s-10.411-3.414-14.126.673z"></path></svg>