<!-- icon666.com - MILLIONS OF FREE VECTOR ICONS --><svg viewBox="0 0 512 512" xmlns="http://www.w3.org/2000/svg"><path d="m349.867188 375.464844c-33.125 0-64.488282-7.550782-92.460938-21.023438l-49.234375-32.886718c-43.929687-39.066407-71.636719-96-71.636719-159.421876 0-56.414062 21.9375-107.671874 57.691406-145.824218-106.777343 27.433594-185.691406 124.347656-185.691406 239.691406 0 136.667969 110.796875 247.464844 247.464844 247.464844 115.34375 0 212.257812-78.914063 239.691406-185.691406-38.152344 35.753906-89.410156 57.691406-145.824218 57.691406zm0 0" fill="#f7e6a1" style="fill: rgb(153, 165, 194);"></path><path d="m222.175781 311.585938c.5625-1.5625 7.21875-19.351563 16.757813-18.253907 14.53125 1.683594 34.285156 24.246094 37.871094 34.132813 5.921874 16.378906-31.753907 39.484375-33.179688 43.417968-1.421875 3.933594-37.699219-19.574218-43.621094-35.949218s20.746094-19.414063 22.171875-23.347656zm0 0" fill="#ebba16" style="fill: rgb(195, 247, 254);"></path><path d="m389.777344 68.222656c2.132812-2.0625 15.121094-27.132812 28.355468-28.757812 4.414063-.535156 7.867188 13.65625 12.269532 16 72.007812 38.402344 14.066406 60.222656 11.222656 62.976562-1.628906 1.578125-11.484375 26.839844-23.160156 26.625-8.667969-.152344-18.5-24.6875-25.921875-28.800781-46.210938-25.597656-5.609375-45.285156-2.765625-48.042969zm0 0" fill="#ebba16" style="fill: rgb(195, 247, 254);"></path><g fill="#4d007e"><path d="m238.933594 409.601562c-4.710938 0-8.535156-3.816406-8.535156-8.535156 0-32.929687-26.792969-59.734375-59.730469-59.734375-4.710938 0-8.535157-3.8125-8.535157-8.53125s3.824219-8.535156 8.535157-8.535156c32.9375 0 59.730469-26.800781 59.730469-59.730469 0-4.722656 3.824218-8.535156 8.535156-8.535156 4.710937 0 8.53125 3.8125 8.53125 8.535156 0 32.929688 26.796875 59.730469 59.734375 59.730469 4.710937 0 8.535156 3.816406 8.535156 8.535156s-3.824219 8.53125-8.535156 8.53125c-32.9375 0-59.734375 26.804688-59.734375 59.734375 0 4.71875-3.820313 8.535156-8.53125 8.535156zm-33.101563-76.800781c14.164063 7.320313 25.78125 18.933594 33.101563 33.101563 7.328125-14.167969 18.933594-25.78125 33.101562-33.101563-14.167968-7.324219-25.78125-18.9375-33.101562-33.101562-7.332032 14.164062-18.9375 25.777343-33.101563 33.101562zm0 0" fill="#4d007e" style="fill: rgb(60, 0, 97);"></path><path d="m418.132812 187.734375c-4.710937 0-8.53125-3.816406-8.53125-8.535156 0-42.351563-34.449218-76.800781-76.800781-76.800781-4.710937 0-8.535156-3.8125-8.535156-8.53125s3.824219-8.535157 8.535156-8.535157c42.351563 0 76.800781-34.449219 76.800781-76.796875 0-4.722656 3.820313-8.535156 8.53125-8.535156 4.710938 0 8.535157 3.8125 8.535157 8.535156 0 42.347656 34.449219 76.796875 76.796875 76.796875 4.710937 0 8.535156 3.816407 8.535156 8.535157s-3.824219 8.53125-8.535156 8.53125c-42.347656 0-76.796875 34.449218-76.796875 76.800781 0 4.71875-3.824219 8.535156-8.535157 8.535156zm-46.242187-93.867187c20.386719 9.378906 36.863281 25.847656 46.242187 46.242187 9.378907-20.394531 25.855469-36.863281 46.242188-46.242187-20.386719-9.378907-36.863281-25.847657-46.242188-46.242188-9.378906 20.394531-25.855468 36.863281-46.242187 46.242188zm0 0" fill="#4d007e" style="fill: rgb(60, 0, 97);"></path><path d="m256 512c-141.160156 0-256-114.839844-256-256 0-116.933594 78.992188-218.898438 192.101562-247.960938 3.671876-.964843 7.535157.648438 9.464844 3.917969 1.9375 3.265625 1.476563 7.414063-1.117187 10.179688-35.714844 38.117187-55.382813 87.832031-55.382813 139.996093 0 58.394532 25.070313 114.175782 68.777344 153.054688 1.980469 1.757812 3.03125 4.34375 2.84375 6.988281s-1.605469 5.050781-3.816406 6.511719c-2.277344 1.5-4.625 2.875-7.03125 4.113281 14.167968 7.328125 25.78125 18.941407 33.101562 33.117188 3.226563-6.230469 7.332032-12.058594 12.238282-17.304688 2.550781-2.722656 6.570312-3.464843 9.933593-1.859375 27.792969 13.386719 57.65625 20.179688 88.753907 20.179688 52.171874 0 101.886718-19.667969 139.988281-55.382813 2.773437-2.609375 6.921875-3.054687 10.179687-1.117187 3.269532 1.9375 4.863282 5.792968 3.917969 9.464844-29.066406 113.109374-131.03125 192.101562-247.953125 192.101562zm-86.699219-478.746094c-90.898437 35.261719-152.234375 123.1875-152.234375 222.746094 0 131.746094 107.1875 238.933594 238.933594 238.933594 99.550781 0 187.476562-61.335938 222.746094-152.226563-37.4375 26.792969-82.253906 41.292969-128.878906 41.292969-31.464844 0-61.757813-6.417969-90.15625-19.082031-7.933594 10.378906-12.246094 23.007812-12.246094 36.148437 0 4.71875-3.820313 8.535156-8.53125 8.535156-4.710938 0-8.535156-3.816406-8.535156-8.535156 0-32.929687-26.792969-59.734375-59.730469-59.734375-4.710938 0-8.535157-3.8125-8.535157-8.53125s3.824219-8.535156 8.535157-8.535156c7.96875 0 15.769531-1.578125 23.023437-4.617187-41.890625-41.546876-65.691406-98.292969-65.691406-157.515626 0-46.625 14.5-91.441406 41.300781-128.878906zm0 0" fill="#4d007e" style="fill: rgb(60, 0, 97);"></path><path d="m384 310.734375-37.667969-37.667969 37.667969-37.664062 37.667969 37.664062zm-13.535156-37.667969 13.535156 13.535156 13.535156-13.535156-13.535156-13.535156zm0 0" fill="#4d007e" style="fill: rgb(60, 0, 97);"></path><path d="m384 256c-4.710938 0-8.535156-3.8125-8.535156-8.535156v-17.066406c0-4.71875 3.824218-8.53125 8.535156-8.53125s8.535156 3.8125 8.535156 8.53125v17.066406c0 4.722656-3.824218 8.535156-8.535156 8.535156zm0 0" fill="#4d007e" style="fill: rgb(60, 0, 97);"></path><path d="m426.667969 281.601562h-17.066407c-4.710937 0-8.535156-3.816406-8.535156-8.535156s3.824219-8.53125 8.535156-8.53125h17.066407c4.710937 0 8.53125 3.8125 8.53125 8.53125s-3.820313 8.535156-8.53125 8.535156zm0 0" fill="#4d007e" style="fill: rgb(60, 0, 97);"></path><path d="m384 324.265625c-4.710938 0-8.535156-3.8125-8.535156-8.53125v-17.066406c0-4.71875 3.824218-8.535157 8.535156-8.535157s8.535156 3.816407 8.535156 8.535157v17.066406c0 4.71875-3.824218 8.53125-8.535156 8.53125zm0 0" fill="#4d007e" style="fill: rgb(60, 0, 97);"></path><path d="m358.398438 281.601562h-17.066407c-4.710937 0-8.53125-3.816406-8.53125-8.535156s3.820313-8.53125 8.53125-8.53125h17.066407c4.710937 0 8.535156 3.8125 8.535156 8.53125s-3.824219 8.535156-8.535156 8.535156zm0 0" fill="#4d007e" style="fill: rgb(60, 0, 97);"></path><path d="m230.398438 182.734375-37.664063-37.667969 37.664063-37.664062 37.667968 37.664062zm-13.53125-37.667969 13.53125 13.535156 13.535156-13.535156-13.535156-13.535156zm0 0" fill="#4d007e" style="fill: rgb(60, 0, 97);"></path><path d="m230.398438 128c-4.707032 0-8.53125-3.8125-8.53125-8.535156v-17.066406c0-4.71875 3.824218-8.53125 8.53125-8.53125 4.710937 0 8.535156 3.8125 8.535156 8.53125v17.066406c0 4.722656-3.824219 8.535156-8.535156 8.535156zm0 0" fill="#4d007e" style="fill: rgb(60, 0, 97);"></path><path d="m273.066406 153.601562h-17.066406c-4.710938 0-8.535156-3.816406-8.535156-8.535156s3.824218-8.53125 8.535156-8.53125h17.066406c4.710938 0 8.535156 3.8125 8.535156 8.53125s-3.824218 8.535156-8.535156 8.535156zm0 0" fill="#4d007e" style="fill: rgb(60, 0, 97);"></path><path d="m230.398438 196.265625c-4.707032 0-8.53125-3.8125-8.53125-8.53125v-17.066406c0-4.71875 3.824218-8.535157 8.53125-8.535157 4.710937 0 8.535156 3.816407 8.535156 8.535157v17.066406c0 4.71875-3.824219 8.53125-8.535156 8.53125zm0 0" fill="#4d007e" style="fill: rgb(60, 0, 97);"></path><path d="m204.800781 153.601562h-17.066406c-4.710937 0-8.535156-3.816406-8.535156-8.535156s3.824219-8.53125 8.535156-8.53125h17.066406c4.710938 0 8.53125 3.8125 8.53125 8.53125s-3.820312 8.535156-8.53125 8.535156zm0 0" fill="#4d007e" style="fill: rgb(60, 0, 97);"></path></g></svg>